<svg width="0" height="0" class="hidden">
  <symbol xmlns="http://www.w3.org/2000/svg" viewBox="0 0 24 24" id="expand-down">
    <path d="M18 9L12 15L6 9" stroke="#33363F" stroke-width="2"></path>
  </symbol>
  <symbol fill="#000000" xmlns="http://www.w3.org/2000/svg" viewBox="0 0 1920 1920" id="exit-full-screen">
    <path d="M884.311 1035.689v696.318H675.186v-339.162L147.926 1920 0 1772.074l527.26-527.155H187.889v-209.23H884.31ZM1772.116 0l147.926 147.926-527.155 527.155h339.162v209.335h-696.423V187.889h209.335v339.266L1772.116 0Z" fill-rule="evenodd"></path>
  </symbol>

  <symbol fill="none" xmlns="http://www.w3.org/2000/svg" viewBox="0 0 24 24" id="bookmark-fill">
    <path d="M15.75 3.25H8.24999C7.52064 3.25 6.82117 3.53973 6.30545 4.05546C5.78972 4.57118 5.49999 5.27065 5.49999 6V20C5.49898 20.1377 5.53587 20.2729 5.60662 20.391C5.67738 20.5091 5.77926 20.6054 5.90112 20.6695C6.02298 20.7335 6.16012 20.7627 6.2975 20.754C6.43488 20.7453 6.56721 20.6989 6.67999 20.62L12 16.91L17.32 20.62C17.4467 20.7063 17.5967 20.7516 17.75 20.75C17.871 20.7486 17.9903 20.7213 18.1 20.67C18.2203 20.6041 18.3208 20.5072 18.3911 20.3894C18.4615 20.2716 18.499 20.1372 18.5 20V6C18.5 5.27065 18.2103 4.57118 17.6945 4.05546C17.1788 3.53973 16.4793 3.25 15.75 3.25Z" fill="#000000"></path>
  </symbol>
  <symbol fill="none" xmlns="http://www.w3.org/2000/svg" viewBox="0 0 24 24" id="bookmark">
    <path d="M17.75 20.75C17.5974 20.747 17.4487 20.702 17.32 20.62L12 16.91L6.68 20.62C6.56249 20.6915 6.42757 20.7294 6.29 20.7294C6.15243 20.7294 6.01751 20.6915 5.9 20.62C5.78491 20.5607 5.68741 20.4722 5.61722 20.3634C5.54703 20.2546 5.50661 20.1293 5.5 20V6C5.5 5.27065 5.78973 4.57118 6.30546 4.05546C6.82118 3.53973 7.52065 3.25 8.25 3.25H15.75C16.4793 3.25 17.1788 3.53973 17.6945 4.05546C18.2103 4.57118 18.5 5.27065 18.5 6V20C18.5005 20.1362 18.4634 20.2698 18.3929 20.3863C18.3223 20.5027 18.2209 20.5974 18.1 20.66C17.9927 20.7189 17.8724 20.7498 17.75 20.75ZM12 15.25C12.1532 15.2484 12.3033 15.2938 12.43 15.38L17 18.56V6C17 5.66848 16.8683 5.35054 16.6339 5.11612C16.3995 4.8817 16.0815 4.75 15.75 4.75H8.25C7.91848 4.75 7.60054 4.8817 7.36612 5.11612C7.1317 5.35054 7 5.66848 7 6V18.56L11.57 15.38C11.6967 15.2938 11.8468 15.2484 12 15.25Z" fill="#000000"></path>
  </symbol>
</svg>